<svg viewBox="0 0 175.58 141.76" xmlns="http://www.w3.org/2000/svg" xmlns:xlink="http://www.w3.org/1999/xlink"><linearGradient id="a" gradientUnits="userSpaceOnUse" x2="175.58" y1="71" y2="71"><stop offset="0" stop-color="#878787"/><stop offset=".38" stop-color="#6d6d6d"/><stop offset=".73" stop-color="#5d5d5c"/><stop offset="1" stop-color="#575756"/></linearGradient><linearGradient id="b" gradientTransform="matrix(-1 0 0 -1 336.45 -1343.07)" gradientUnits="userSpaceOnUse" x1="163.7" x2="190.45" y1="-1413.95" y2="-1413.95"><stop offset="0" stop-color="#bc1621"/><stop offset=".57" stop-color="#cb414e"/><stop offset=".97" stop-color="#d45c69"/></linearGradient><linearGradient id="c" gradientTransform="matrix(-1 0 0 -1 283.73 -1343.07)" gradientUnits="userSpaceOnUse" x1="137.73" x2="280.89" y1="-1413.95" y2="-1413.95"><stop offset="0" stop-color="#d45c65"/><stop offset=".01" stop-color="#cf575f"/><stop offset=".04" stop-color="#b43a3f"/><stop offset=".07" stop-color="#a02528"/><stop offset=".1" stop-color="#94181b"/><stop offset=".12" stop-color="#901416"/><stop offset="1" stop-color="#be1622"/></linearGradient><path d="m9.11 141.67a9.13 9.13 0 0 1 -9.11-9.12v-123.11a9.12 9.12 0 0 1 9.11-9.11h157.53a9 9 0 0 1 8.94 8.94v123.45a9 9 0 0 1 -8.94 8.95z" fill="url(#a)"/><path d="m166.64 3.16-20.64-3.16v141.76l20.64-2.93a6.1 6.1 0 0 0 6.1-6.11v-123.45a6.11 6.11 0 0 0 -6.1-6.11z" fill="url(#b)"/><path d="m146 0-136.89 3.16a6.28 6.28 0 0 0 -6.28 6.28v123.11a6.28 6.28 0 0 0 6.28 6.28l136.89 2.93z" fill="url(#c)"/><g fill="none" stroke="#fff" stroke-linecap="round" stroke-miterlimit="10" stroke-width="4"><path d="m41.06 71h20.66"/><circle cx="113.17" cy="71" r="15.39"/></g></svg>