<svg xmlns="http://www.w3.org/2000/svg" xmlns:xlink="http://www.w3.org/1999/xlink" viewBox="0 0 179.88 144.8"><defs><style>.cls-1{isolation:isolate;}.cls-2{fill:#1e1e1e;}.cls-3{fill:url(#Degradado_sin_nombre_26);}.cls-4{fill:url(#Degradado_sin_nombre_12);}.cls-5{fill:#3f3f3f;opacity:0.5;}.cls-5,.cls-8{mix-blend-mode:multiply;}.cls-6{fill:url(#Degradado_sin_nombre_241);}.cls-7,.cls-8{fill:none;stroke-linecap:round;stroke-miterlimit:10;stroke-width:4px;}.cls-7{stroke:#b5b5b5;opacity:0.45;mix-blend-mode:lighten;}.cls-8{stroke:#7c7c7c;}</style><linearGradient id="Degradado_sin_nombre_26" x1="-356.87" y1="-1412.43" x2="-330.12" y2="-1412.43" gradientTransform="translate(361.85 1484.83)" gradientUnits="userSpaceOnUse"><stop offset="0" stop-color="#99191c"/><stop offset="0.13" stop-color="#99191c"/><stop offset="0.95" stop-color="#99191c"/></linearGradient><linearGradient id="Degradado_sin_nombre_12" x1="-382.84" y1="-1412.43" x2="-239.68" y2="-1412.43" gradientTransform="translate(414.57 1484.83)" gradientUnits="userSpaceOnUse"><stop offset="0" stop-color="#941417"/><stop offset="0.22" stop-color="#d45c65"/><stop offset="0.42" stop-color="#cb3f49"/><stop offset="0.63" stop-color="#c42834"/><stop offset="0.83" stop-color="#bf1b27"/><stop offset="1" stop-color="#be1622"/></linearGradient><radialGradient id="Degradado_sin_nombre_241" cx="126.24" cy="72.4" r="50.05" gradientTransform="translate(-5.15) scale(0.97 1)" gradientUnits="userSpaceOnUse"><stop offset="0" stop-color="#fff" stop-opacity="0.98"/><stop offset="0.18" stop-color="#fcc824" stop-opacity="0.96"/><stop offset="0.3" stop-color="#ed9d24" stop-opacity="0.73"/><stop offset="0.44" stop-color="#df7523" stop-opacity="0.51"/><stop offset="0.57" stop-color="#d35323" stop-opacity="0.33"/><stop offset="0.7" stop-color="#ca3822" stop-opacity="0.19"/><stop offset="0.81" stop-color="#c32522" stop-opacity="0.08"/><stop offset="0.92" stop-color="#bf1a22" stop-opacity="0.02"/><stop offset="1" stop-color="#be1622" stop-opacity="0"/></radialGradient></defs><g class="cls-1"><g id="Capa_2" data-name="Capa 2"><g id="Switch_On_Premium" data-name="Switch On Premium"><path class="cls-2" d="M9.34,144.8A9.35,9.35,0,0,1,0,135.46V9.34A9.35,9.35,0,0,1,9.34,0H170.72a9.17,9.17,0,0,1,9.16,9.16V135.64a9.17,9.17,0,0,1-9.16,9.16Z"/><path class="cls-3" d="M11.09,140.12l20.64,3.16V1.52L11.09,4.45A6.11,6.11,0,0,0,5,10.55V134A6.12,6.12,0,0,0,11.09,140.12Z"/><path class="cls-4" d="M31.73,143.28l136.89-3.16a6.28,6.28,0,0,0,6.27-6.28V10.73a6.28,6.28,0,0,0-6.27-6.28L31.73,1.52Z"/><path class="cls-5" d="M168.62,4.45,31.73,1.52,11.09,4.45A6.11,6.11,0,0,0,5,10.55V134a6.12,6.12,0,0,0,6.11,6.11l20.64,3.16,136.89-3.16a6.28,6.28,0,0,0,6.27-6.28V10.73A6.28,6.28,0,0,0,168.62,4.45Z"/><ellipse class="cls-6" cx="117.32" cy="72.4" rx="48.56" ry="50.05"/><line class="cls-7" x1="55.46" y1="72.4" x2="76.12" y2="72.4"/><circle class="cls-8" cx="127.56" cy="72.4" r="15.39"/></g></g></g></svg>